<svg xmlns="http://www.w3.org/2000/svg" viewBox="0 0 210.08 214.73"><defs><style>.cls-1{fill:#231f20;}</style></defs><title>Fichier 1</title><g id="Calque_2" data-name="Calque 2"><g id="Layer_1" data-name="Layer 1"><path class="cls-1" d="M192.51,84h9.91a7.66,7.66,0,0,1,7.66,7.66v31.4a7.66,7.66,0,0,1-7.66,7.66h-9.91a0,0,0,0,1,0,0V84A0,0,0,0,1,192.51,84Z"/><path class="cls-1" d="M0,84H9.91a7.66,7.66,0,0,1,7.66,7.66v31.4a7.66,7.66,0,0,1-7.66,7.66H0a0,0,0,0,1,0,0V84A0,0,0,0,1,0,84Z" transform="translate(17.57 214.73) rotate(180)"/><path class="cls-1" d="M129.57,14.16,105,0,80.52,14.16,12.07,53.69V161l93,53.69L198,161V53.69ZM187,154.68,110.23,199V153.79h12.08v.28c1-.06,1.91-.17,2.85-.28h.35v0a47.25,47.25,0,0,0-3.83-94H99.55V143.5H91a36.58,36.58,0,0,1-3.74-73V59.81A47.26,47.26,0,0,0,91,154.18h8.53v44.66L23.08,154.68V60.05L83.76,25,105,12.73,126.32,25l60.68,35Zm-76.77-11.12V70.35h8.83a36.58,36.58,0,0,1,3.25,73v.2Z"/></g></g></svg>